<?xml version="1.0" encoding="UTF-8"?>
<!DOCTYPE svg PUBLIC "-//W3C//DTD SVG 1.1//EN" "http://www.w3.org/Graphics/SVG/1.1/DTD/svg11.dtd">
<svg xmlns="http://www.w3.org/2000/svg" version="1.1" width="1024px" height="768px" style="shape-rendering:geometricPrecision; text-rendering:geometricPrecision; image-rendering:optimizeQuality; fill-rule:evenodd; clip-rule:evenodd" xmlns:xlink="http://www.w3.org/1999/xlink">
<g><path style="opacity:1" fill="#9854fe" d="M -0.5,-0.5 C 340.833,-0.5 682.167,-0.5 1023.5,-0.5C 1023.5,255.5 1023.5,511.5 1023.5,767.5C 682.167,767.5 340.833,767.5 -0.5,767.5C -0.5,511.5 -0.5,255.5 -0.5,-0.5 Z"/></g>
<g><path style="opacity:1" fill="#3f304f" d="M 250.5,22.5 C 252.144,22.2865 253.644,22.6198 255,23.5C 257.406,37.7469 258.906,52.0803 259.5,66.5C 257.856,66.7135 256.356,66.3802 255,65.5C 252.249,51.1788 250.749,36.8454 250.5,22.5 Z"/></g>
<g><path style="opacity:1" fill="#f3c657" d="M 762.5,23.5 C 765.582,24.7267 768.582,26.2267 771.5,28C 787.797,28.7614 791.964,36.2614 784,50.5C 783.289,52.8991 783.456,55.2324 784.5,57.5C 789.621,59.5269 794.954,61.0269 800.5,62C 803.738,64.1447 805.405,67.1447 805.5,71C 804.123,75.757 802.456,80.4237 800.5,85C 800.625,86.6268 801.125,88.1268 802,89.5C 806.668,91.1107 811.502,92.2774 816.5,93C 822.109,96.2769 823.942,101.11 822,107.5C 818.941,112.392 817.775,117.725 818.5,123.5C 814.229,123.66 812.229,121.493 812.5,117C 813.58,113.338 815.08,109.838 817,106.5C 817.667,104.167 817.667,101.833 817,99.5C 812.74,97.5789 808.24,96.4122 803.5,96C 798.359,94.3621 795.693,90.8621 795.5,85.5C 796.153,81.1915 797.653,77.1915 800,73.5C 801.271,69.8339 800.104,67.3339 796.5,66C 779.804,65.7407 774.971,58.2407 782,43.5C 782.667,40.8333 782.667,38.1667 782,35.5C 776.603,33.7363 771.103,32.2363 765.5,31C 762.156,29.2325 761.156,26.7325 762.5,23.5 Z"/></g>
<g><path style="opacity:1" fill="#3d2e4c" d="M 656.5,30.5 C 687.154,28.5292 715.821,35.0292 742.5,50C 759.773,60.6097 771.939,75.443 779,94.5C 783.436,111.711 781.603,128.211 773.5,144C 803.216,141.285 831.216,146.952 857.5,161C 874.991,171.161 886.491,185.995 892,205.5C 894.698,225.073 889.198,241.906 875.5,256C 872.333,256.833 871.167,255.667 872,252.5C 891.141,230.579 892.474,207.579 876,183.5C 857.518,163.676 834.684,152.51 807.5,150C 794.797,148.335 782.131,148.668 769.5,151C 756.406,170.802 738.239,179.302 715,176.5C 714.247,169.229 717.08,163.729 723.5,160C 737.225,152.758 751.725,147.925 767,145.5C 783.768,110.406 776.601,81.2392 745.5,58C 702.232,32.2689 657.232,28.9356 610.5,48C 590.449,56.7183 575.615,70.885 566,90.5C 558.635,114.204 563.468,135.037 580.5,153C 580.333,154.5 579.5,155.333 578,155.5C 560.271,139.305 553.937,119.305 559,95.5C 565.954,75.2059 578.787,59.7059 597.5,49C 616.061,38.8662 635.727,32.6996 656.5,30.5 Z"/></g>
<g><path style="opacity:1" fill="#c69efb" d="M 247.5,120.5 C 245.621,121.341 243.621,121.675 241.5,121.5C 241.989,99.6893 250.655,81.856 267.5,68C 296.481,46.2505 329.148,36.9171 365.5,40C 399.316,41.996 427.816,55.1626 451,79.5C 470.333,106.167 470.333,132.833 451,159.5C 449.235,161.774 447.068,163.441 444.5,164.5C 442.833,164.167 441.833,163.167 441.5,161.5C 464.135,135.745 465.301,109.079 445,81.5C 423.435,59.8058 397.268,47.9725 366.5,46C 333.366,43.0216 303.033,50.6883 275.5,69C 262.367,78.4654 253.534,90.9654 249,106.5C 247.878,111.102 247.378,115.768 247.5,120.5 Z"/></g>
<g><path style="opacity:1" fill="#5fe2cb" d="M 238.5,42.5 C 240.39,42.2965 241.89,42.9632 243,44.5C 244.914,51.9897 246.747,59.4897 248.5,67C 248.905,70.9438 247.405,72.1105 244,70.5C 241.677,62.2096 239.511,53.8763 237.5,45.5C 237.685,44.4163 238.018,43.4163 238.5,42.5 Z"/></g>
<g><path style="opacity:1" fill="#5ae5cb" d="M 690.5,60.5 C 690.5,63.5 690.5,66.5 690.5,69.5C 689.167,69.5 687.833,69.5 686.5,69.5C 686.806,66.6146 686.473,63.9479 685.5,61.5C 678.018,60.508 670.352,60.1746 662.5,60.5C 662.5,63.1667 662.5,65.8333 662.5,68.5C 660.833,69.8333 659.167,69.8333 657.5,68.5C 657.335,65.4816 657.502,62.4816 658,59.5C 658.5,57.6667 659.667,56.5 661.5,56C 669.833,55.3333 678.167,55.3333 686.5,56C 688.751,56.7475 690.084,58.2475 690.5,60.5 Z"/></g>
<g><path style="opacity:1" fill="#9854fe" d="M 685.5,61.5 C 685.5,63.8333 685.5,66.1667 685.5,68.5C 677.833,68.5 670.167,68.5 662.5,68.5C 662.5,65.8333 662.5,63.1667 662.5,60.5C 670.352,60.1746 678.018,60.508 685.5,61.5 Z"/></g>
<g><path style="opacity:1" fill="#57e7ca" d="M 373.5,81.5 C 371.5,81.5 369.5,81.5 367.5,81.5C 367.5,81.1667 367.5,80.8333 367.5,80.5C 367.768,77.8806 367.435,75.3806 366.5,73C 359.833,72.3333 353.167,72.3333 346.5,73C 345.944,73.3826 345.611,73.8826 345.5,74.5C 344.532,76.6074 344.198,78.9407 344.5,81.5C 342.833,81.5 341.167,81.5 339.5,81.5C 338.261,69.252 343.761,64.5853 356,67.5C 368.552,64.3169 374.386,68.9836 373.5,81.5 Z"/></g>
<g><path style="opacity:1" fill="#c59efb" d="M 690.5,60.5 C 691.473,62.9479 691.806,65.6146 691.5,68.5C 699.84,68.3336 708.173,68.5003 716.5,69C 720.538,69.6011 723.371,71.7678 725,75.5C 725.667,96.5 725.667,117.5 725,138.5C 724.167,142 722,144.167 718.5,145C 703.667,145.167 688.833,145.333 674,145.5C 658.411,145.652 642.911,145.152 627.5,144C 625.622,142.457 624.122,140.624 623,138.5C 622.333,126.5 622.333,114.5 623,102.5C 634.419,101.512 645.919,101.179 657.5,101.5C 656.814,97.713 657.814,94.5463 660.5,92C 671.167,91.3333 681.833,91.3333 692.5,92C 695.6,94.3718 696.933,97.5385 696.5,101.5C 703.175,101.334 709.842,101.5 716.5,102C 717.711,103.113 717.711,104.28 716.5,105.5C 709.189,106.665 701.856,106.831 694.5,106C 691.037,103.85 689.704,100.684 690.5,96.5C 681.167,96.5 671.833,96.5 662.5,96.5C 662.5,98.1667 662.5,99.8333 662.5,101.5C 670.84,101.334 679.173,101.5 687.5,102C 692.902,107.064 692.569,111.73 686.5,116C 678.167,116.667 669.833,116.667 661.5,116C 658.037,113.85 656.704,110.684 657.5,106.5C 647.5,106.5 637.5,106.5 627.5,106.5C 627.334,115.839 627.5,125.173 628,134.5C 628.273,136.101 628.773,137.601 629.5,139C 659.167,139.667 688.833,139.667 718.5,139C 719,138.5 719.5,138 720,137.5C 720.667,117.5 720.667,97.5 720,77.5C 719.626,76.5838 719.126,75.7504 718.5,75C 689.167,74.3333 659.833,74.3333 630.5,75C 629.299,75.9025 628.465,77.0692 628,78.5C 627.667,84.8333 627.333,91.1667 627,97.5C 625.667,98.8333 624.333,98.8333 623,97.5C 622.333,90.5 622.333,83.5 623,76.5C 624.245,72.2579 627.078,69.7579 631.5,69C 640.16,68.5002 648.827,68.3336 657.5,68.5C 659.167,69.8333 660.833,69.8333 662.5,68.5C 670.167,68.5 677.833,68.5 685.5,68.5C 685.5,66.1667 685.5,63.8333 685.5,61.5C 686.473,63.9479 686.806,66.6146 686.5,69.5C 687.833,69.5 689.167,69.5 690.5,69.5C 690.5,66.5 690.5,63.5 690.5,60.5 Z"/></g>
<g><path style="opacity:1" fill="#985afc" d="M 367.5,80.5 C 360.167,80.5 352.833,80.5 345.5,80.5C 345.5,78.5 345.5,76.5 345.5,74.5C 345.611,73.8826 345.944,73.3826 346.5,73C 353.167,72.3333 359.833,72.3333 366.5,73C 367.435,75.3806 367.768,77.8806 367.5,80.5 Z"/></g>
<g><path style="opacity:1" fill="#ac7beb" d="M 345.5,74.5 C 345.5,76.5 345.5,78.5 345.5,80.5C 352.833,80.5 360.167,80.5 367.5,80.5C 367.5,80.8333 367.5,81.1667 367.5,81.5C 359.833,81.5 352.167,81.5 344.5,81.5C 344.198,78.9407 344.532,76.6074 345.5,74.5 Z"/></g>
<g><path style="opacity:1" fill="#fac5bd" d="M 339.5,81.5 C 341.167,81.5 342.833,81.5 344.5,81.5C 352.167,81.5 359.833,81.5 367.5,81.5C 369.5,81.5 371.5,81.5 373.5,81.5C 382.839,81.3335 392.173,81.5002 401.5,82C 404.381,83.2506 406.214,85.4173 407,88.5C 407.667,108.833 407.667,129.167 407,149.5C 406.214,152.583 404.381,154.749 401.5,156C 386.5,156.167 371.5,156.333 356.5,156.5C 340.744,156.652 325.078,156.152 309.5,155C 307.513,153.681 306.346,151.848 306,149.5C 305.167,137.486 305.334,125.486 306.5,113.5C 317.448,112.522 328.448,112.189 339.5,112.5C 338.845,108.645 340.179,105.812 343.5,104C 353.833,103.333 364.167,103.333 374.5,104C 375.416,104.374 376.25,104.874 377,105.5C 377.497,107.81 377.663,110.143 377.5,112.5C 384.175,112.334 390.842,112.5 397.5,113C 398.833,114.667 398.833,116.333 397.5,118C 390.5,118.667 383.5,118.667 376.5,118C 373.037,115.805 371.704,112.639 372.5,108.5C 363.318,108.173 354.318,108.507 345.5,109.5C 344.566,110.568 344.232,111.901 344.5,113.5C 352.5,113.5 360.5,113.5 368.5,113.5C 371.766,114.537 373.433,116.87 373.5,120.5C 373.516,124.63 371.516,127.13 367.5,128C 359.833,128.667 352.167,128.667 344.5,128C 340.61,126.055 338.943,122.888 339.5,118.5C 329.833,118.5 320.167,118.5 310.5,118.5C 310.334,128.506 310.5,138.506 311,148.5C 311.833,149.333 312.667,150.167 313.5,151C 342.167,151.667 370.833,151.667 399.5,151C 400,150.5 400.5,150 401,149.5C 401.667,129.167 401.667,108.833 401,88.5C 400.5,88 400,87.5 399.5,87C 370.5,86.3333 341.5,86.3333 312.5,87C 311.874,87.7504 311.374,88.5838 311,89.5C 310.667,96.1667 310.333,102.833 310,109.5C 308.667,110.833 307.333,110.833 306,109.5C 305.333,102.167 305.333,94.8333 306,87.5C 306.785,85.714 307.951,84.214 309.5,83C 319.395,81.5505 329.395,81.0505 339.5,81.5 Z"/></g>
<g><path style="opacity:1" fill="#e9df45" d="M 163.5,146.5 C 164.043,146.44 164.376,146.107 164.5,145.5C 161.572,144.516 158.572,144.183 155.5,144.5C 144.72,142.854 137.553,136.854 134,126.5C 132.946,118.885 136.279,114.885 144,114.5C 157.175,115.671 165.509,122.671 169,135.5C 170.049,136.517 171.216,136.684 172.5,136C 182.868,127.61 187.868,116.61 187.5,103C 186.766,97.5011 186.1,92.0011 185.5,86.5C 186.873,86.3433 188.207,86.51 189.5,87C 199.036,100.467 211.036,103.134 225.5,95C 229.216,91.0286 232.549,86.8619 235.5,82.5C 237.266,82.4342 238.266,83.2676 238.5,85C 231.595,101.62 219.262,107.954 201.5,104C 198.241,102.789 195.408,100.956 193,98.5C 195.078,118.68 187.412,133.68 170,143.5C 168.295,155.222 162.461,164.389 152.5,171C 145.621,174.606 138.621,177.939 131.5,181C 148.774,196.928 153.774,216.095 146.5,238.5C 143.855,240.094 142.188,239.427 141.5,236.5C 146.813,220.711 144.646,206.044 135,192.5C 130.599,187.93 126.099,183.596 121.5,179.5C 121.59,177.575 122.59,176.408 124.5,176C 138.61,173.53 150.444,167.03 160,156.5C 162.035,153.439 163.201,150.105 163.5,146.5 Z"/></g>
<g><path style="opacity:1" fill="#9854fe" d="M 662.5,106.5 C 670.167,106.5 677.833,106.5 685.5,106.5C 685.714,108.144 685.38,109.644 684.5,111C 677.5,111.667 670.5,111.667 663.5,111C 662.62,109.644 662.286,108.144 662.5,106.5 Z"/></g>
<g><path style="opacity:1" fill="#c88dde" d="M 345.5,109.5 C 345.5,110.5 345.5,111.5 345.5,112.5C 353.352,112.175 361.018,112.508 368.5,113.5C 360.5,113.5 352.5,113.5 344.5,113.5C 344.232,111.901 344.566,110.568 345.5,109.5 Z"/></g>
<g><path style="opacity:1" fill="#c59dfb" d="M 854.5,115.5 C 865.833,114.998 870.666,120.331 869,131.5C 865.085,138.039 859.585,139.872 852.5,137C 848.312,133.797 846.479,129.63 847,124.5C 847.691,121.734 849.191,121.067 851.5,122.5C 851.975,125.926 852.975,129.092 854.5,132C 859.666,134.084 862.999,132.417 864.5,127C 864.406,123.072 862.406,120.906 858.5,120.5C 853.732,121.889 852.398,120.223 854.5,115.5 Z"/></g>
<g><path style="opacity:1" fill="#9955fe" d="M 344.5,118.5 C 352.167,118.5 359.833,118.5 367.5,118.5C 367.5,119.833 367.5,121.167 367.5,122.5C 359.833,122.5 352.167,122.5 344.5,122.5C 344.5,121.167 344.5,119.833 344.5,118.5 Z"/></g>
<g><path style="opacity:1" fill="#9a56fc" d="M 140.5,120.5 C 153.887,119.886 161.554,126.219 163.5,139.5C 152.61,140.476 144.777,136.143 140,126.5C 139.322,124.402 139.489,122.402 140.5,120.5 Z"/></g>
<g><path style="opacity:1" fill="#3b2d4a" d="M 247.5,120.5 C 249.145,141.626 258.479,158.46 275.5,171C 307.924,193.439 342.924,199.106 380.5,188C 378.088,181.554 377.921,175.054 380,168.5C 384.332,161.967 389.666,160.967 396,165.5C 400.673,175.312 398.84,183.645 390.5,190.5C 397.616,197.061 405.95,201.561 415.5,204C 431.223,208.294 447.223,209.627 463.5,208C 449.383,200.217 438.216,189.383 430,175.5C 429.275,170.411 430.942,169.411 435,172.5C 444.509,190.347 459.009,201.847 478.5,207C 479.991,209.022 479.658,210.688 477.5,212C 448.481,217.962 420.815,214.296 394.5,201C 390.988,198.743 387.654,196.243 384.5,193.5C 343.897,205.152 306.23,198.986 271.5,175C 254.043,161.37 244.043,143.536 241.5,121.5C 243.621,121.675 245.621,121.341 247.5,120.5 Z"/></g>
<g><path style="opacity:1" fill="#f3c656" d="M 533.5,135.5 C 535.308,135.491 536.975,135.991 538.5,137C 544.313,142.075 550.646,146.408 557.5,150C 560.404,155.098 559.071,156.431 553.5,154C 547.028,149.694 540.694,145.194 534.5,140.5C 533.548,138.955 533.215,137.288 533.5,135.5 Z"/></g>
<g><path style="opacity:1" fill="#3b2d4a" d="M 236.5,139.5 C 240.35,139.701 241.35,141.534 239.5,145C 221.136,150.053 205.97,159.887 194,174.5C 180.124,196.448 181.791,217.115 199,236.5C 200.254,240.111 199.088,241.611 195.5,241C 171.847,212.849 173.18,185.849 199.5,160C 210.735,151.052 223.069,144.219 236.5,139.5 Z"/></g>
<g><path style="opacity:1" fill="#c38ec0" d="M 155.5,144.5 C 158.572,144.183 161.572,144.516 164.5,145.5C 164.376,146.107 164.043,146.44 163.5,146.5C 160.833,145.833 158.167,145.167 155.5,144.5 Z"/></g>
<g><path style="opacity:1" fill="#c59dfb" d="M 487.5,149.5 C 492.667,148.492 494.334,150.325 492.5,155C 483.972,156.338 475.472,157.838 467,159.5C 463.065,158.689 462.565,156.856 465.5,154C 472.947,152.375 480.28,150.875 487.5,149.5 Z"/></g>
<g><path style="opacity:1" fill="#9754fc" d="M 757.5,152.5 C 761.195,151.874 762.029,152.874 760,155.5C 749,167.005 735.5,173.005 719.5,173.5C 720.712,169.602 723.046,166.436 726.5,164C 736.515,158.979 746.848,155.145 757.5,152.5 Z"/></g>
<g><path style="opacity:1" fill="#f9c5bd" d="M 629.5,154.5 C 635.739,153.536 640.239,155.869 643,161.5C 644.196,168.002 643.362,174.168 640.5,180C 646.19,182.591 652.19,184.257 658.5,185C 671.72,185.818 684.887,185.318 698,183.5C 701.285,183.7 702.118,185.2 700.5,188C 679.286,192.267 658.453,191.1 638,184.5C 621.643,196.845 603.143,203.678 582.5,205C 569.789,205.378 557.122,204.711 544.5,203C 543.62,201.644 543.286,200.144 543.5,198.5C 563.454,193.383 578.288,181.716 588,163.5C 589.356,162.62 590.856,162.286 592.5,162.5C 592.628,164.655 592.128,166.655 591,168.5C 582.682,181.819 571.515,191.986 557.5,199C 585.204,203.384 610.537,197.718 633.5,182C 623.313,173.897 621.979,164.73 629.5,154.5 Z"/></g>
<g><path style="opacity:1" fill="#c59dfa" d="M 512.5,154.5 C 527.43,159.378 542.764,162.211 558.5,163C 559.833,164.333 559.833,165.667 558.5,167C 542.488,168.198 527.155,165.531 512.5,159C 511.272,157.51 511.272,156.01 512.5,154.5 Z"/></g>
<g><path style="opacity:1" fill="#9c58fc" d="M 630.5,159.5 C 635.058,158.38 637.891,160.047 639,164.5C 640.022,169.398 639.022,173.732 636,177.5C 633.346,176.179 631.346,174.179 630,171.5C 629.306,167.446 629.473,163.446 630.5,159.5 Z"/></g>
<g><path style="opacity:1" fill="#59e7ca" d="M 806.5,179.5 C 806.634,181.292 806.301,182.958 805.5,184.5C 804.5,184.5 803.5,184.5 802.5,184.5C 801.766,183.292 801.433,181.959 801.5,180.5C 801.5,177.833 801.5,175.167 801.5,172.5C 794.833,172.5 788.167,172.5 781.5,172.5C 781.5,175.167 781.5,177.833 781.5,180.5C 781.567,181.959 781.234,183.292 780.5,184.5C 779.5,184.5 778.5,184.5 777.5,184.5C 776.766,183.292 776.433,181.959 776.5,180.5C 776.5,178.167 776.5,175.833 776.5,173.5C 776.452,170.708 777.785,168.875 780.5,168C 787.833,167.333 795.167,167.333 802.5,168C 804.333,168.5 805.5,169.667 806,171.5C 806.497,174.146 806.664,176.813 806.5,179.5 Z"/></g>
<g><path style="opacity:1" fill="#9755f8" d="M 386.5,168.5 C 391.282,167.614 393.616,169.614 393.5,174.5C 393.156,179.323 390.989,182.99 387,185.5C 382.554,180.07 382.388,174.404 386.5,168.5 Z"/></g>
<g><path style="opacity:1" fill="#5ce4cb" d="M 463.5,168.5 C 478.524,172.173 493.524,176.006 508.5,180C 510.283,181.067 510.783,182.567 510,184.5C 509.275,185.059 508.442,185.392 507.5,185.5C 493.123,181.822 478.79,177.989 464.5,174C 462.19,172.541 461.857,170.708 463.5,168.5 Z"/></g>
<g><path style="opacity:1" fill="#9f5bfb" d="M 801.5,180.5 C 794.833,180.5 788.167,180.5 781.5,180.5C 781.5,177.833 781.5,175.167 781.5,172.5C 788.167,172.5 794.833,172.5 801.5,172.5C 801.5,175.167 801.5,177.833 801.5,180.5 Z"/></g>
<g><path style="opacity:1" fill="#c38ede" d="M 776.5,173.5 C 776.5,175.833 776.5,178.167 776.5,180.5C 768.5,180.5 760.5,180.5 752.5,180.5C 759.982,179.508 767.648,179.175 775.5,179.5C 775.205,177.265 775.539,175.265 776.5,173.5 Z"/></g>
<g><path style="opacity:1" fill="#fbc8bc" d="M 752.5,180.5 C 760.5,180.5 768.5,180.5 776.5,180.5C 776.433,181.959 776.766,183.292 777.5,184.5C 769.16,184.334 760.827,184.5 752.5,185C 752,185.5 751.5,186 751,186.5C 750.667,192.5 750.333,198.5 750,204.5C 748.644,205.38 747.144,205.714 745.5,205.5C 745.334,199.158 745.5,192.825 746,186.5C 746.728,182.939 748.894,180.939 752.5,180.5 Z"/></g>
<g><path style="opacity:1" fill="#feccba" d="M 781.5,180.5 C 788.167,180.5 794.833,180.5 801.5,180.5C 801.433,181.959 801.766,183.292 802.5,184.5C 795.167,184.5 787.833,184.5 780.5,184.5C 781.234,183.292 781.567,181.959 781.5,180.5 Z"/></g>
<g><path style="opacity:1" fill="#f8c3bf" d="M 806.5,179.5 C 814.507,179.334 822.507,179.5 830.5,180C 833.583,180.786 835.749,182.619 837,185.5C 837.667,204.167 837.667,222.833 837,241.5C 836.167,245 834,247.167 830.5,248C 804.833,248.667 779.167,248.667 753.5,248C 749.433,247.562 746.933,245.395 746,241.5C 745.333,230.833 745.333,220.167 746,209.5C 756.084,208.514 766.251,208.181 776.5,208.5C 776.055,205.635 776.722,203.135 778.5,201C 783.558,199.884 788.725,199.384 794,199.5C 798.5,199.667 803,199.833 807.5,200C 810.125,202.196 811.125,205.03 810.5,208.5C 816.509,208.334 822.509,208.501 828.5,209C 829.833,210.333 829.833,211.667 828.5,213C 822.167,213.667 815.833,213.667 809.5,213C 806.876,210.847 805.876,208.013 806.5,204.5C 798.167,204.5 789.833,204.5 781.5,204.5C 781.5,205.833 781.5,207.167 781.5,208.5C 789.279,208.068 796.946,208.568 804.5,210C 807.6,214.733 806.934,218.733 802.5,222C 795.167,222.667 787.833,222.667 780.5,222C 777.179,220.188 775.845,217.355 776.5,213.5C 767.833,213.5 759.167,213.5 750.5,213.5C 750.334,222.839 750.5,232.173 751,241.5C 751.5,242 752,242.5 752.5,243C 778.5,243.667 804.5,243.667 830.5,243C 831,242.5 831.5,242 832,241.5C 832.667,223.167 832.667,204.833 832,186.5C 831.5,186 831,185.5 830.5,185C 822.173,184.5 813.84,184.334 805.5,184.5C 806.301,182.958 806.634,181.292 806.5,179.5 Z"/></g>
<g><path style="opacity:1" fill="#eae23e" d="M 214.5,183.5 C 232.5,183.5 250.5,183.5 268.5,183.5C 268.714,185.144 268.38,186.644 267.5,188C 250.167,188.667 232.833,188.667 215.5,188C 214.62,186.644 214.286,185.144 214.5,183.5 Z"/></g>
<g><path style="opacity:1" fill="#eae437" d="M 214.5,198.5 C 242.167,198.5 269.833,198.5 297.5,198.5C 297.5,200.167 297.5,201.833 297.5,203.5C 269.833,203.5 242.167,203.5 214.5,203.5C 214.5,201.833 214.5,200.167 214.5,198.5 Z"/></g>
<g><path style="opacity:1" fill="#5de3cb" d="M 694.5,197.5 C 696.595,197.76 697.928,198.926 698.5,201C 692.976,220.572 696.643,238.238 709.5,254C 722.128,254.591 734.128,257.591 745.5,263C 750.482,265.8 752.649,269.966 752,275.5C 751.5,277.333 750.333,278.5 748.5,279C 732.543,277.858 718.876,271.525 707.5,260C 685.049,259.027 664.716,265.027 646.5,278C 623.491,298.112 621.491,320.112 640.5,344C 639.941,346.188 638.607,346.854 636.5,346C 616.126,320.534 618.126,296.867 642.5,275C 660.442,262.406 680.442,255.239 702.5,253.5C 690.274,236.148 687.607,217.481 694.5,197.5 Z"/></g>
<g><path style="opacity:1" fill="#fac6bd" d="M 365.5,200.5 C 366.822,200.33 367.989,200.663 369,201.5C 369.396,214.978 365.396,226.978 357,237.5C 335.655,260.178 309.322,271.178 278,270.5C 267.923,270.894 258.09,269.56 248.5,266.5C 224.006,282.545 197.339,287.379 168.5,281C 167.483,279.951 167.316,278.784 168,277.5C 185.029,272.076 197.863,261.576 206.5,246C 208.391,245.691 209.725,246.525 210.5,248.5C 204.026,260.807 194.693,270.307 182.5,277C 204.357,280.527 224.357,276.027 242.5,263.5C 236.071,258.053 234.238,251.386 237,243.5C 240.42,239.247 244.587,238.413 249.5,241C 253.284,245.861 254.451,251.361 253,257.5C 251.991,259.025 251.491,260.692 251.5,262.5C 285.598,270.205 316.598,263.705 344.5,243C 356.707,231.42 363.707,217.253 365.5,200.5 Z"/></g>
<g><path style="opacity:1" fill="#3b2e4a" d="M 598.5,226.5 C 599.833,224.833 599.833,223.167 598.5,221.5C 610.034,220.74 620.701,223.406 630.5,229.5C 631.938,212.446 640.272,207.946 655.5,216C 657.388,218.19 659.555,220.023 662,221.5C 662.49,222.793 662.657,224.127 662.5,225.5C 660.801,225.66 659.134,225.494 657.5,225C 652.638,218.057 646.305,216.057 638.5,219C 637.232,221.141 636.565,223.474 636.5,226C 637.695,230.084 638.361,234.25 638.5,238.5C 637.127,238.657 635.793,238.49 634.5,238C 623.892,229.865 611.892,226.032 598.5,226.5 Z"/></g>
<g><path style="opacity:1" fill="#eae437" d="M 214.5,213.5 C 252.168,213.333 289.835,213.5 327.5,214C 328.833,215.333 328.833,216.667 327.5,218C 289.835,218.5 252.168,218.667 214.5,218.5C 214.5,216.833 214.5,215.167 214.5,213.5 Z"/></g>
<g><path style="opacity:1" fill="#9854fe" d="M 781.5,213.5 C 788.167,213.5 794.833,213.5 801.5,213.5C 801.5,214.833 801.5,216.167 801.5,217.5C 794.833,217.5 788.167,217.5 781.5,217.5C 781.5,216.167 781.5,214.833 781.5,213.5 Z"/></g>
<g><path style="opacity:1" fill="#c69efb" d="M 430.5,220.5 C 432.595,220.76 433.928,221.926 434.5,224C 417.026,245.477 397.026,264.144 374.5,280C 370.203,282.982 365.537,285.149 360.5,286.5C 350.776,282.401 340.776,281.567 330.5,284C 327.048,284.892 324.048,286.558 321.5,289C 316.048,288.752 315.381,286.752 319.5,283C 332.666,275.289 346.333,274.456 360.5,280.5C 364.44,279.196 368.107,277.363 371.5,275C 393.518,259.486 413.185,241.319 430.5,220.5 Z"/></g>
<g><path style="opacity:1" fill="#eabf4f" d="M 598.5,221.5 C 599.833,223.167 599.833,224.833 598.5,226.5C 579.87,230.457 573.037,241.457 578,259.5C 579.978,262.645 582.478,265.312 585.5,267.5C 592.405,263.773 599.738,262.273 607.5,263C 613.313,265.128 614.813,268.961 612,274.5C 607.078,279.202 601.245,280.702 594.5,279C 591.121,277.893 587.954,276.393 585,274.5C 580.992,277.847 579.325,282.181 580,287.5C 582.338,294.853 586.671,300.853 593,305.5C 593.167,308 592,309.167 589.5,309C 579.207,302.247 574.373,292.747 575,280.5C 576.198,276.806 578.032,273.472 580.5,270.5C 566.837,255.971 567.17,241.804 581.5,228C 586.539,224.146 592.205,221.979 598.5,221.5 Z"/></g>
<g><path style="opacity:1" fill="#fac6bd" d="M 376.5,336.5 C 377.309,334.972 377.976,333.306 378.5,331.5C 387.74,332.891 396.74,331.725 405.5,328C 422.523,318.981 437.856,307.648 451.5,294C 470.133,274.889 485.966,253.722 499,230.5C 502.63,227.774 503.963,228.774 503,233.5C 482.575,270.594 455.075,301.428 420.5,326C 406.95,335.034 392.283,338.534 376.5,336.5 Z"/></g>
<g><path style="opacity:1" fill="#a05cfa" d="M 242.5,244.5 C 248.095,245.56 249.929,248.893 248,254.5C 247.804,256.286 246.971,257.619 245.5,258.5C 240.408,254.594 239.408,249.928 242.5,244.5 Z"/></g>
<g><path style="opacity:1" fill="#c59dfb" d="M 821.5,254.5 C 826.362,254.243 829.862,256.243 832,260.5C 833.999,268.851 831.499,275.351 824.5,280C 844.107,293.651 865.773,298.651 889.5,295C 877.333,288.167 867.833,278.667 861,266.5C 860.116,264.359 860.616,262.693 862.5,261.5C 867.798,268.57 873.465,275.404 879.5,282C 886.837,288.169 895.17,292.502 904.5,295C 906.13,298.062 905.13,299.729 901.5,300C 874.121,305.139 848.454,300.806 824.5,287C 823,285.5 821.5,284 820,282.5C 810.547,286.28 800.714,288.113 790.5,288C 789.167,286.333 789.167,284.667 790.5,283C 796.19,282.531 801.857,281.864 807.5,281C 810.79,280.747 813.79,279.747 816.5,278C 811.628,268.665 813.295,260.832 821.5,254.5 Z"/></g>
<g><path style="opacity:1" fill="#9859fd" d="M 716.5,261.5 C 726.823,260.665 736.489,263.165 745.5,269C 748.602,272.29 747.935,274.123 743.5,274.5C 733.548,272.023 724.548,267.69 716.5,261.5 Z"/></g>
<g><path style="opacity:1" fill="#9955fe" d="M 821.5,260.5 C 825.495,259.884 827.495,261.55 827.5,265.5C 827.528,270.114 825.528,273.447 821.5,275.5C 818.894,270.533 818.894,265.533 821.5,260.5 Z"/></g>
<g><path style="opacity:1" fill="#5be5ca" d="M 128.5,263.5 C 154.66,310.633 194.993,336.8 249.5,342C 256.371,342.778 263.205,342.612 270,341.5C 273.643,342.738 274.143,344.571 271.5,347C 222.062,350.187 180.229,334.02 146,298.5C 138.504,290.186 132.504,280.853 128,270.5C 127.297,268.071 127.463,265.738 128.5,263.5 Z"/></g>
<g><path style="opacity:1" fill="#9a57f7" d="M 600.5,267.5 C 603.564,267.144 606.231,267.977 608.5,270C 607.726,272.44 606.06,273.773 603.5,274C 598.389,275.111 593.722,274.111 589.5,271C 593.254,269.691 596.921,268.525 600.5,267.5 Z"/></g>
<g><path style="opacity:1" fill="#5be4cb" d="M 245.5,276.5 C 253.72,281.105 262.387,284.939 271.5,288C 273.977,289.643 276.31,291.476 278.5,293.5C 299.803,281.29 317.636,284.957 332,304.5C 338.824,317.368 339.157,330.368 333,343.5C 327.924,348.756 322.924,348.756 318,343.5C 316.253,337.205 314.586,330.871 313,324.5C 311.58,320.655 309.413,317.322 306.5,314.5C 308.26,311.074 310.426,310.741 313,313.5C 318.374,321.471 321.541,330.304 322.5,340C 324.771,343.312 326.938,343.146 329,339.5C 335.145,321.899 330.979,307.399 316.5,296C 304.217,290.662 292.55,291.662 281.5,299C 285.607,310.542 283.607,320.876 275.5,330C 271.227,332.122 268.06,330.955 266,326.5C 263.707,315.554 266.207,305.888 273.5,297.5C 272.687,296.186 271.687,295.019 270.5,294C 262.231,290.864 254.231,287.198 246.5,283C 243.118,281.13 242.784,278.964 245.5,276.5 Z"/></g>
<g><path style="opacity:1" fill="#3c2e4a" d="M 771.5,282.5 C 773.39,282.297 774.89,282.963 776,284.5C 792.369,310.231 788.869,333.064 765.5,353C 740.155,371.035 712.488,375.869 682.5,367.5C 661.523,381.93 638.523,386.264 613.5,380.5C 612.167,379.167 612.167,377.833 613.5,376.5C 620.893,374.304 627.56,370.804 633.5,366C 638.402,360.771 642.902,355.271 647,349.5C 648.732,349.734 649.566,350.734 649.5,352.5C 644.444,363.058 636.777,371.225 626.5,377C 643.616,378.777 659.616,375.444 674.5,367C 675.357,366.311 676.023,365.478 676.5,364.5C 671.819,360.142 670.319,354.809 672,348.5C 674.513,344.788 678.013,343.622 682.5,345C 683.333,345.833 684.167,346.667 685,347.5C 686.664,352.792 686.997,358.126 686,363.5C 711.701,369.542 735.868,365.709 758.5,352C 774.138,341.223 781.638,326.39 781,307.5C 779.384,299.634 776.05,292.634 771,286.5C 770.421,285.072 770.588,283.738 771.5,282.5 Z"/></g>
<g><path style="opacity:1" fill="#c7a1fc" d="M 667.5,289.5 C 694.502,289.333 721.502,289.5 748.5,290C 749.38,291.356 749.714,292.856 749.5,294.5C 722.165,294.667 694.831,294.5 667.5,294C 666.272,292.51 666.272,291.01 667.5,289.5 Z"/></g>
<g><path style="opacity:1" fill="#e9df45" d="M 378.5,331.5 C 377.976,333.306 377.309,334.972 376.5,336.5C 375.5,336.5 374.5,336.5 373.5,336.5C 365.853,360.31 349.853,375.477 325.5,382C 321.459,382.827 317.459,382.66 313.5,381.5C 312.289,380.28 312.289,379.113 313.5,378C 340.824,375.351 359.157,361.184 368.5,335.5C 363.473,330.958 359.307,325.624 356,319.5C 353.343,313.594 353.009,307.594 355,301.5C 358.925,297.59 362.925,297.59 367,301.5C 373.509,310.037 376.175,319.703 375,330.5C 376.011,331.337 377.178,331.67 378.5,331.5 Z"/></g>
<g><path style="opacity:1" fill="#985dfb" d="M 276.5,302.5 C 279.466,310.84 277.966,318.507 272,325.5C 269.503,317.139 271.003,309.473 276.5,302.5 Z"/></g>
<g><path style="opacity:1" fill="#c49afa" d="M 667.5,302.5 C 694.502,302.333 721.502,302.5 748.5,303C 749.833,304.667 749.833,306.333 748.5,308C 721.833,308.667 695.167,308.667 668.5,308C 666.365,306.444 666.032,304.611 667.5,302.5 Z"/></g>
<g><path style="opacity:1" fill="#9d59f9" d="M 360.5,303.5 C 367.18,310.036 370.014,318.036 369,327.5C 361.299,321.122 358.466,313.122 360.5,303.5 Z"/></g>
<g><path style="opacity:1" fill="#f3c655" d="M 808.5,310.5 C 821.205,316.616 832.705,324.616 843,334.5C 843.438,338.534 841.938,339.367 838.5,337C 829.381,328.607 819.381,321.44 808.5,315.5C 807.334,313.833 807.334,312.166 808.5,310.5 Z"/></g>
<g><path style="opacity:1" fill="#c49afa" d="M 668.5,315.5 C 694.835,315.333 721.169,315.5 747.5,316C 749.658,317.312 749.991,318.978 748.5,321C 721.5,321.667 694.5,321.667 667.5,321C 666.243,318.924 666.576,317.09 668.5,315.5 Z"/></g>
<g><path style="opacity:1" fill="#5ae5ca" d="M 798.5,319.5 C 802.974,321.125 806.474,324.125 809,328.5C 811,331.833 813,335.167 815,338.5C 815.963,343.226 814.63,344.226 811,341.5C 807.827,335.819 804.161,330.486 800,325.5C 798.872,323.655 798.372,321.655 798.5,319.5 Z"/></g>
<g><path style="opacity:1" fill="#c7a1fc" d="M 667.5,329.5 C 688.5,329.5 709.5,329.5 730.5,329.5C 730.714,331.144 730.38,332.644 729.5,334C 708.833,334.667 688.167,334.667 667.5,334C 666.272,332.51 666.272,331.01 667.5,329.5 Z"/></g>
<g><path style="opacity:1" fill="#c69efb" d="M 309.5,333.5 C 312.473,333.965 313.64,335.632 313,338.5C 305.037,352.898 292.87,360.898 276.5,362.5C 276.286,360.856 276.62,359.356 277.5,358C 291.851,354.464 302.517,346.297 309.5,333.5 Z"/></g>
<g><path style="opacity:1" fill="#9754fb" d="M 676.5,349.5 C 678.144,349.286 679.644,349.62 681,350.5C 681.903,354.033 681.57,357.367 680,360.5C 676.827,357.577 675.66,353.911 676.5,349.5 Z"/></g>
<g><path style="opacity:1" fill="#c69efb" d="M 318.5,349.5 C 322.071,349.408 323.238,351.074 322,354.5C 311.947,366.058 299.614,370.724 285,368.5C 284.508,367.451 284.674,366.451 285.5,365.5C 298.816,364.674 309.816,359.341 318.5,349.5 Z"/></g>
<g><path style="opacity:1" fill="#c59dfb" d="M 329.5,357.5 C 332.729,357.165 334.229,358.498 334,361.5C 323.843,372.764 311.509,377.431 297,375.5C 296.316,374.216 296.483,373.049 297.5,372C 310.362,371.671 321.029,366.838 329.5,357.5 Z"/></g>
<g><path style="opacity:1" fill="#fac6be" d="M 651.5,383.5 C 652.822,383.33 653.989,383.663 655,384.5C 657.392,398.422 658.726,412.422 659,426.5C 657.413,427.727 656.079,427.394 655,425.5C 653.582,413.157 652.082,400.823 650.5,388.5C 650.592,386.742 650.925,385.076 651.5,383.5 Z"/></g>
<g><path style="opacity:1" fill="#3f3049" d="M 379.5,384.5 C 381.283,385.114 382.616,386.28 383.5,388C 388.167,389 392.833,390 397.5,391C 401.819,392.979 404.152,396.313 404.5,401C 403.601,405.363 402.101,409.529 400,413.5C 399.313,415.568 399.48,417.568 400.5,419.5C 405.621,421.527 410.954,423.027 416.5,424C 421.19,426.881 423.023,431.048 422,436.5C 420.941,439.618 419.608,442.618 418,445.5C 416.621,449.475 417.787,452.309 421.5,454C 439.084,454.361 443.917,462.194 436,477.5C 435.824,480.882 435.324,484.215 434.5,487.5C 433.914,487.709 433.414,488.043 433,488.5C 430.879,486.482 429.712,483.982 429.5,481C 430.299,476.9 431.799,473.066 434,469.5C 435.379,465.525 434.213,462.691 430.5,461C 412.916,460.639 408.083,452.806 416,437.5C 417.718,432.615 416.218,429.449 411.5,428C 402.018,428.942 396.018,424.942 393.5,416C 396.107,410.652 397.94,405.152 399,399.5C 398.5,397.667 397.333,396.5 395.5,396C 390.747,395.383 386.08,394.383 381.5,393C 377.378,390.698 376.711,387.864 379.5,384.5 Z"/></g>
<g><path style="opacity:1" fill="#c59ef5" d="M 266.5,392.5 C 301.036,389.635 333.036,397.135 362.5,415C 396.337,439.01 405.337,470.177 389.5,508.5C 419.383,505.594 447.716,511.094 474.5,525C 493.297,535.771 505.464,551.605 511,572.5C 513.843,593.142 507.677,610.476 492.5,624.5C 491.167,623.833 490.167,622.833 489.5,621.5C 513.728,591.837 511.728,564.003 483.5,538C 454.029,516.904 421.362,509.57 385.5,516C 373.521,532.575 357.354,542.075 337,544.5C 330.21,544.382 327.543,541.049 329,534.5C 334.739,526.198 342.572,520.698 352.5,518C 362.589,514.77 372.756,511.937 383,509.5C 399.039,477.03 393.539,448.864 366.5,425C 341.608,406.259 313.441,397.092 282,397.5C 251.478,397.342 223.978,406.175 199.5,424C 183.247,437.009 174.247,453.842 172.5,474.5C 173.124,482.451 174.957,490.117 178,497.5C 181.913,504.576 186.413,511.243 191.5,517.5C 190.919,519.724 189.586,520.557 187.5,520C 164.588,495.518 161.422,468.685 178,439.5C 193.594,418.602 214.094,404.769 239.5,398C 248.551,395.719 257.551,393.885 266.5,392.5 Z"/></g>
<g><path style="opacity:1" fill="#382b4a" d="M 647.5,480.5 C 645.833,481.833 644.167,481.833 642.5,480.5C 641.919,465.409 646.419,452.076 656,440.5C 676.018,418.573 700.852,405.739 730.5,402C 766.845,397.066 800.179,404.733 830.5,425C 846.442,436.612 856.276,452.112 860,471.5C 861.548,491.192 855.381,508.025 841.5,522C 838.333,522.833 837.167,521.667 838,518.5C 856.448,497.982 859.448,475.315 847,450.5C 833.224,431.088 814.724,418.255 791.5,412C 754.316,401.531 718.65,405.197 684.5,423C 667.193,432.637 655.359,446.803 649,465.5C 647.84,470.434 647.34,475.434 647.5,480.5 Z"/></g>
<g><path style="opacity:1" fill="#e7db4e" d="M 639.5,403.5 C 642.388,403.22 643.888,404.553 644,407.5C 645.677,414.543 647.511,421.543 649.5,428.5C 649.5,430.5 648.5,431.5 646.5,431.5C 645.353,431.182 644.519,430.516 644,429.5C 642.043,422.051 640.209,414.551 638.5,407C 638.648,405.744 638.982,404.577 639.5,403.5 Z"/></g>
<g><path style="opacity:1" fill="#54e8c7" d="M 304.5,431.5 C 302.833,431.5 301.167,431.5 299.5,431.5C 299.777,428.552 299.444,425.719 298.5,423C 291.167,422.333 283.833,422.333 276.5,423C 275.556,425.719 275.223,428.552 275.5,431.5C 273.833,431.5 272.167,431.5 270.5,431.5C 269.349,419.002 275.016,414.335 287.5,417.5C 300.019,414.373 305.685,419.04 304.5,431.5 Z"/></g>
<g><path style="opacity:1" fill="#9854fe" d="M 299.5,431.5 C 291.5,431.5 283.5,431.5 275.5,431.5C 275.223,428.552 275.556,425.719 276.5,423C 283.833,422.333 291.167,422.333 298.5,423C 299.444,425.719 299.777,428.552 299.5,431.5 Z"/></g>
<g><path style="opacity:1" fill="#e7dc4c" d="M 770.5,441.5 C 768.833,441.5 767.167,441.5 765.5,441.5C 765.802,438.941 765.468,436.607 764.5,434.5C 757.5,433.167 750.5,433.167 743.5,434.5C 742.532,436.607 742.198,438.941 742.5,441.5C 740.833,441.5 739.167,441.5 737.5,441.5C 736.085,429.753 741.252,425.086 753,427.5C 758.393,427.165 763.559,427.999 768.5,430C 770.29,433.583 770.957,437.416 770.5,441.5 Z"/></g>
<g><path style="opacity:1" fill="#f6c2b9" d="M 270.5,431.5 C 272.167,431.5 273.833,431.5 275.5,431.5C 283.5,431.5 291.5,431.5 299.5,431.5C 301.167,431.5 302.833,431.5 304.5,431.5C 313.839,431.334 323.173,431.5 332.5,432C 335.196,432.69 337.363,434.19 339,436.5C 340.634,458.436 340.967,480.436 340,502.5C 339.214,505.583 337.381,507.749 334.5,509C 303.167,509.667 271.833,509.667 240.5,509C 238.083,507.337 236.25,505.171 235,502.5C 234.333,490.5 234.333,478.5 235,466.5C 235.5,466 236,465.5 236.5,465C 247.828,464.5 259.162,464.333 270.5,464.5C 270.154,461.398 270.821,458.565 272.5,456C 278.395,454.876 284.395,454.376 290.5,454.5C 295.833,454.667 301.167,454.833 306.5,455C 309.186,457.546 310.186,460.713 309.5,464.5C 316.508,464.334 323.508,464.5 330.5,465C 331.991,467.022 331.658,468.688 329.5,470C 322.833,470.667 316.167,470.667 309.5,470C 305.308,467.78 303.641,464.28 304.5,459.5C 295.161,459.334 285.827,459.5 276.5,460C 275.62,461.356 275.286,462.856 275.5,464.5C 283.84,464.334 292.173,464.5 300.5,465C 302.333,465.5 303.5,466.667 304,468.5C 305.724,473.731 304.224,477.565 299.5,480C 291.5,480.667 283.5,480.667 275.5,480C 271.125,478.299 269.458,475.133 270.5,470.5C 260.5,470.5 250.5,470.5 240.5,470.5C 240.333,481.172 240.5,491.839 241,502.5C 241.5,503 242,503.5 242.5,504C 272.5,504.667 302.5,504.667 332.5,504C 333,503.5 333.5,503 334,502.5C 334.826,480.927 334.66,459.427 333.5,438C 302.833,437.333 272.167,437.333 241.5,438C 240.685,445.087 240.185,452.253 240,459.5C 238.688,461.658 237.022,461.991 235,460.5C 234.333,453.5 234.333,446.5 235,439.5C 235.69,436.804 237.19,434.637 239.5,433C 249.729,431.549 260.062,431.049 270.5,431.5 Z"/></g>
<g><path style="opacity:1" fill="#9956ff" d="M 764.5,434.5 C 764.5,436.833 764.5,439.167 764.5,441.5C 757.5,441.5 750.5,441.5 743.5,441.5C 743.5,439.167 743.5,436.833 743.5,434.5C 750.5,433.167 757.5,433.167 764.5,434.5 Z"/></g>
<g><path style="opacity:1" fill="#c49efe" d="M 743.5,434.5 C 743.5,436.833 743.5,439.167 743.5,441.5C 750.5,441.5 757.5,441.5 764.5,441.5C 764.5,439.167 764.5,436.833 764.5,434.5C 765.468,436.607 765.802,438.941 765.5,441.5C 767.167,441.5 768.833,441.5 770.5,441.5C 779.506,441.334 788.506,441.5 797.5,442C 800,443.167 801.833,445 803,447.5C 803.667,467.5 803.667,487.5 803,507.5C 802.31,510.196 800.81,512.363 798.5,514C 783.732,515.143 768.898,515.643 754,515.5C 739.102,515.643 724.268,515.143 709.5,514C 707.274,512.773 705.774,510.939 705,508.5C 704.333,496.833 704.333,485.167 705,473.5C 715.752,472.513 726.585,472.18 737.5,472.5C 736.705,468.406 738.038,465.239 741.5,463C 751.907,462.074 762.241,462.408 772.5,464C 774.314,466.481 774.98,469.315 774.5,472.5C 781.175,472.334 787.842,472.5 794.5,473C 795.833,474.333 795.833,475.667 794.5,477C 787.5,477.667 780.5,477.667 773.5,477C 770.037,474.85 768.704,471.684 769.5,467.5C 760.827,467.334 752.16,467.5 743.5,468C 742.62,469.356 742.286,470.856 742.5,472.5C 750.507,472.334 758.507,472.5 766.5,473C 771.986,478.081 771.653,482.748 765.5,487C 757.833,487.667 750.167,487.667 742.5,487C 738.61,485.055 736.943,481.888 737.5,477.5C 728.167,477.5 718.833,477.5 709.5,477.5C 709.334,487.506 709.5,497.506 710,507.5C 710.833,508.333 711.667,509.167 712.5,510C 739.833,510.667 767.167,510.667 794.5,510C 795.931,509.535 797.097,508.701 798,507.5C 798.667,487.833 798.667,468.167 798,448.5C 797.25,447.874 796.416,447.374 795.5,447C 767.5,446.333 739.5,446.333 711.5,447C 711,447.5 710.5,448 710,448.5C 709.667,455.167 709.333,461.833 709,468.5C 707.667,469.833 706.333,469.833 705,468.5C 704.333,461.167 704.333,453.833 705,446.5C 706.5,445 708,443.5 709.5,442C 718.827,441.5 728.161,441.334 737.5,441.5C 739.167,441.5 740.833,441.5 742.5,441.5C 742.198,438.941 742.532,436.607 743.5,434.5 Z"/></g>
<g><path style="opacity:1" fill="#55e5cd" d="M 634.5,442.5 C 636.948,442.01 638.615,442.843 639.5,445C 632.886,460.476 621.22,466.809 604.5,464C 601.12,462.559 597.953,460.726 595,458.5C 596.268,474.317 591.101,487.484 579.5,498C 577.182,499.993 574.516,501.159 571.5,501.5C 570.672,514.181 564.672,523.681 553.5,530C 547.398,533.385 541.065,536.218 534.5,538.5C 551.024,553.591 556.19,571.924 550,593.5C 548.234,597.378 546.401,597.378 544.5,593.5C 550.154,577.12 547.654,562.12 537,548.5C 532.827,544.527 528.66,540.694 524.5,537C 524.645,536.228 524.978,535.561 525.5,535C 540.319,532.178 552.819,525.345 563,514.5C 565.076,511.107 566.242,507.44 566.5,503.5C 554.215,504.775 545.048,500.108 539,489.5C 537.595,485.928 537.262,482.261 538,478.5C 538.5,476.667 539.667,475.5 541.5,475C 557.9,473.13 568.066,480.297 572,496.5C 583.805,489.233 589.638,478.566 589.5,464.5C 588.62,458.525 587.953,452.525 587.5,446.5C 588.873,446.343 590.207,446.51 591.5,447C 601.241,460.715 613.241,463.048 627.5,454C 630.885,450.787 633.218,446.954 634.5,442.5 Z"/></g>
<g><path style="opacity:1" fill="#9854fe" d="M 275.5,470.5 C 283.5,470.5 291.5,470.5 299.5,470.5C 299.5,471.833 299.5,473.167 299.5,474.5C 291.5,474.5 283.5,474.5 275.5,474.5C 275.5,473.167 275.5,471.833 275.5,470.5 Z"/></g>
<g><path style="opacity:1" fill="#9c5bff" d="M 742.5,477.5 C 749.841,477.334 757.174,477.5 764.5,478C 765.833,479.333 765.833,480.667 764.5,482C 757.5,482.667 750.5,482.667 743.5,482C 742.62,480.644 742.286,479.144 742.5,477.5 Z"/></g>
<g><path style="opacity:1" fill="#f8c4b8" d="M 472.5,479.5 C 484.448,479.272 489.281,484.939 487,496.5C 479.953,504.491 472.953,504.491 466,496.5C 464.682,493.594 464.348,490.594 465,487.5C 466.667,484.833 468.333,484.833 470,487.5C 469.059,492.999 471.226,496.333 476.5,497.5C 480.447,497.055 482.447,494.889 482.5,491C 482.646,488.966 481.98,487.299 480.5,486C 477.649,484.711 474.649,484.211 471.5,484.5C 471.366,482.708 471.699,481.042 472.5,479.5 Z"/></g>
<g><path style="opacity:1" fill="#9759fd" d="M 543.5,479.5 C 556.836,478.998 564.503,485.331 566.5,498.5C 555.34,499.859 547.507,495.526 543,485.5C 542.322,483.402 542.489,481.402 543.5,479.5 Z"/></g>
<g><path style="opacity:1" fill="#fac6be" d="M 642.5,480.5 C 644.167,481.833 645.833,481.833 647.5,480.5C 649.905,501.806 659.905,518.639 677.5,531C 708.156,550.761 741.156,556.094 776.5,547C 777.022,546.439 777.355,545.772 777.5,545C 775.096,538.888 774.929,532.722 777,526.5C 781.679,520.665 787.012,519.999 793,524.5C 795.893,529.314 796.226,534.314 794,539.5C 792.323,542.853 790.157,545.853 787.5,548.5C 798.597,557.374 811.263,562.874 825.5,565C 836.5,565.667 847.5,565.667 858.5,565C 844.717,557.551 833.884,547.051 826,533.5C 824.826,529.339 826.159,528.005 830,529.5C 838.9,547.567 853.067,559.234 872.5,564.5C 873.747,566.006 873.747,567.506 872.5,569C 843.739,575.315 816.406,571.648 790.5,558C 787.597,555.428 784.431,553.261 781,551.5C 738.357,563.372 699.857,555.538 665.5,528C 651.268,515.369 643.602,499.536 642.5,480.5 Z"/></g>
<g><path style="opacity:1" fill="#fac7be" d="M 636.5,498.5 C 640.676,497.831 642.009,499.331 640.5,503C 623.481,508.255 608.981,517.422 597,530.5C 581.929,553.262 583.429,574.928 601.5,595.5C 600.307,597.384 598.641,597.884 596.5,597C 581.334,580.5 577.501,561.667 585,540.5C 592.5,525 604,513.5 619.5,506C 625.226,503.379 630.893,500.879 636.5,498.5 Z"/></g>
<g><path style="opacity:1" fill="#43334b" d="M 144.5,499.5 C 152.273,504.895 160.273,510.061 168.5,515C 171.156,517.229 170.823,519.062 167.5,520.5C 158.723,515.696 150.556,510.03 143,503.5C 142.7,501.934 143.2,500.601 144.5,499.5 Z"/></g>
<g><path style="opacity:1" fill="#382b4b" d="M 878.5,508.5 C 881.187,508.336 883.854,508.503 886.5,509C 887.833,510.333 887.833,511.667 886.5,513C 878.44,514.182 870.44,515.682 862.5,517.5C 858.834,517.631 857.834,516.131 859.5,513C 865.93,511.355 872.263,509.855 878.5,508.5 Z"/></g>
<g><path style="opacity:1" fill="#9855fe" d="M 376.5,516.5 C 377.525,516.897 377.692,517.563 377,518.5C 365.518,531.932 351.018,538.265 333.5,537.5C 337.47,531.709 342.803,527.542 349.5,525C 358.393,521.422 367.393,518.589 376.5,516.5 Z"/></g>
<g><path style="opacity:1" fill="#f1c454" d="M 241.5,519.5 C 251.381,518.547 256.381,523.047 256.5,533C 256.52,537.421 255.52,541.588 253.5,545.5C 259.227,547.957 265.227,549.457 271.5,550C 285.07,550.987 298.57,550.487 312,548.5C 315.285,548.7 316.118,550.2 314.5,553C 297.571,555.951 280.571,556.285 263.5,554C 258.893,553.266 254.559,551.766 250.5,549.5C 238.693,559.723 225.026,566.223 209.5,569C 191.172,572.234 172.839,572.234 154.5,569C 153.253,567.506 153.253,566.006 154.5,564.5C 174.626,558.933 189.626,546.933 199.5,528.5C 200.689,527.571 202.022,527.238 203.5,527.5C 196.937,544.569 185.271,557.069 168.5,565C 189.094,567.926 209.094,565.593 228.5,558C 234.677,555.081 240.344,551.414 245.5,547C 235.218,539.027 233.885,529.86 241.5,519.5 Z"/></g>
<g><path style="opacity:1" fill="#f7c3b8" d="M 121.5,519.5 C 130.443,521.819 139.443,523.986 148.5,526C 154.833,526.333 161.167,526.667 167.5,527C 169.658,528.312 169.991,529.978 168.5,532C 152.598,533.053 137.265,530.553 122.5,524.5C 121.548,522.955 121.215,521.288 121.5,519.5 Z"/></g>
<g><path style="opacity:1" fill="#9c57f9" d="M 244.5,523.5 C 247.263,523.744 249.429,525.077 251,527.5C 252.01,533.064 251.343,538.398 249,543.5C 241.027,538.164 239.527,531.497 244.5,523.5 Z"/></g>
<g><path style="opacity:1" fill="#9a56fd" d="M 783.5,526.5 C 788.07,526.238 790.07,528.404 789.5,533C 789.689,537.793 787.689,541.293 783.5,543.5C 779.615,537.82 779.615,532.154 783.5,526.5 Z"/></g>
<g><path style="opacity:1" fill="#e7dd4b" d="M 858.5,526.5 C 873.216,530.014 887.882,533.847 902.5,538C 904.09,540.48 903.59,542.313 901,543.5C 887.189,539.589 873.355,535.756 859.5,532C 857.19,530.541 856.857,528.708 858.5,526.5 Z"/></g>
<g><path style="opacity:1" fill="#58e7c5" d="M 423.5,545.5 C 423.371,547.216 423.038,548.883 422.5,550.5C 421.5,550.5 420.5,550.5 419.5,550.5C 418.699,548.958 418.366,547.292 418.5,545.5C 418.768,542.881 418.435,540.381 417.5,538C 411.167,537.333 404.833,537.333 398.5,538C 397.565,540.381 397.232,542.881 397.5,545.5C 397.371,547.216 397.038,548.883 396.5,550.5C 395.5,550.5 394.5,550.5 393.5,550.5C 392.699,548.958 392.366,547.292 392.5,545.5C 392.5,543.167 392.5,540.833 392.5,538.5C 392.452,535.708 393.785,533.875 396.5,533C 404.167,532.333 411.833,532.333 419.5,533C 423.165,536.298 424.498,540.465 423.5,545.5 Z"/></g>
<g><path style="opacity:1" fill="#9b57f9" d="M 418.5,545.5 C 411.5,545.5 404.5,545.5 397.5,545.5C 397.232,542.881 397.565,540.381 398.5,538C 404.833,537.333 411.167,537.333 417.5,538C 418.435,540.381 418.768,542.881 418.5,545.5 Z"/></g>
<g><path style="opacity:1" fill="#62dad2" d="M 616.5,540.5 C 633.513,540.167 650.513,540.501 667.5,541.5C 668.747,543.042 668.747,544.542 667.5,546C 650.5,546.667 633.5,546.667 616.5,546C 615.248,544.172 615.248,542.339 616.5,540.5 Z"/></g>
<g><path style="opacity:1" fill="#ab76d1" d="M 392.5,538.5 C 392.5,540.833 392.5,543.167 392.5,545.5C 384.833,545.5 377.167,545.5 369.5,545.5C 376.648,544.508 383.981,544.175 391.5,544.5C 391.205,542.265 391.539,540.265 392.5,538.5 Z"/></g>
<g><path style="opacity:1" fill="#f1c453" d="M 369.5,545.5 C 377.167,545.5 384.833,545.5 392.5,545.5C 392.366,547.292 392.699,548.958 393.5,550.5C 384.827,550.334 376.16,550.5 367.5,551C 367,551.5 366.5,552 366,552.5C 365.5,558.825 365.334,565.158 365.5,571.5C 363.833,571.5 362.167,571.5 360.5,571.5C 360.334,564.825 360.5,558.158 361,551.5C 362.641,547.677 365.474,545.677 369.5,545.5 Z"/></g>
<g><path style="opacity:1" fill="#f1c551" d="M 397.5,545.5 C 404.5,545.5 411.5,545.5 418.5,545.5C 418.366,547.292 418.699,548.958 419.5,550.5C 411.833,550.5 404.167,550.5 396.5,550.5C 397.038,548.883 397.371,547.216 397.5,545.5 Z"/></g>
<g><path style="opacity:1" fill="#efc159" d="M 423.5,545.5 C 432.173,545.334 440.84,545.5 449.5,546C 452.381,547.251 454.214,549.417 455,552.5C 455.667,570.5 455.667,588.5 455,606.5C 454.394,609.548 452.894,612.048 450.5,614C 436.232,615.142 421.899,615.642 407.5,615.5C 393.41,615.65 379.41,615.15 365.5,614C 363.622,612.457 362.122,610.624 361,608.5C 360.333,597.5 360.333,586.5 361,575.5C 371.418,574.513 381.918,574.18 392.5,574.5C 392.055,571.635 392.722,569.135 394.5,567C 399.726,565.882 405.059,565.382 410.5,565.5C 415.167,565.667 419.833,565.833 424.5,566C 427.125,568.196 428.125,571.03 427.5,574.5C 433.842,574.334 440.175,574.5 446.5,575C 447.833,576.333 447.833,577.667 446.5,579C 439.5,579.667 432.5,579.667 425.5,579C 423.07,576.695 422.07,573.862 422.5,570.5C 414.167,570.5 405.833,570.5 397.5,570.5C 397.5,571.833 397.5,573.167 397.5,574.5C 404.841,574.334 412.174,574.5 419.5,575C 424.808,579.429 424.808,583.763 419.5,588C 411.5,588.667 403.5,588.667 395.5,588C 392.875,585.804 391.875,582.97 392.5,579.5C 383.5,579.5 374.5,579.5 365.5,579.5C 365.334,588.839 365.5,598.173 366,607.5C 366.5,608.667 367.333,609.5 368.5,610C 394.833,610.667 421.167,610.667 447.5,610C 448,609.5 448.5,609 449,608.5C 449.667,589.5 449.667,570.5 449,551.5C 440.251,550.516 431.418,550.183 422.5,550.5C 423.038,548.883 423.371,547.216 423.5,545.5 Z"/></g>
<g><path style="opacity:1" fill="#5ddfcf" d="M 616.5,555.5 C 642.835,555.333 669.169,555.5 695.5,556C 696.833,557.667 696.833,559.333 695.5,561C 669.167,561.667 642.833,561.667 616.5,561C 615.248,559.172 615.248,557.339 616.5,555.5 Z"/></g>
<g><path style="opacity:1" fill="#c49dff" d="M 762.5,557.5 C 763.822,557.33 764.989,557.663 766,558.5C 766.507,571.469 762.841,583.136 755,593.5C 734.512,615.82 709.012,626.82 678.5,626.5C 668.06,627.248 658.06,625.581 648.5,621.5C 637.702,630.228 625.369,635.728 611.5,638C 597.542,639.95 583.708,639.45 570,636.5C 569.289,634.633 569.789,633.133 571.5,632C 586.859,627.638 598.359,618.471 606,604.5C 609.379,601.51 611.045,602.176 611,606.5C 604.833,618 596,626.833 584.5,633C 602.297,635.2 619.297,632.533 635.5,625C 638.167,623 640.833,621 643.5,619C 636.638,613.972 634.805,607.472 638,599.5C 644.231,593.805 649.231,594.805 653,602.5C 653.91,607.658 653.41,612.658 651.5,617.5C 681.784,625.344 710.117,620.844 736.5,604C 752.761,592.69 761.428,577.19 762.5,557.5 Z"/></g>
<g><path style="opacity:1" fill="#5ee2c5" d="M 308.5,563.5 C 310.948,563.085 312.281,564.085 312.5,566.5C 307.381,585.079 310.214,602.412 321,618.5C 322.319,620.487 324.152,621.654 326.5,622C 339.021,621.73 350.687,624.73 361.5,631C 363.333,632.833 365.167,634.667 367,636.5C 369.423,641.161 368.256,644.661 363.5,647C 347.522,645.847 333.856,639.514 322.5,628C 294.969,626.397 271.135,634.897 251,653.5C 235.205,674.133 236.038,694.133 253.5,713.5C 252.307,715.384 250.641,715.884 248.5,715C 227.113,686.818 230.446,661.818 258.5,640C 276.245,628.732 295.578,622.399 316.5,621C 304.416,603.013 301.749,583.847 308.5,563.5 Z"/></g>
<g><path style="opacity:1" fill="#53e6cc" d="M 616.5,570.5 C 652.835,570.333 689.168,570.5 725.5,571C 726.833,572.333 726.833,573.667 725.5,575C 688.835,575.5 652.168,575.667 615.5,575.5C 615.366,573.708 615.699,572.042 616.5,570.5 Z"/></g>
<g><path style="opacity:1" fill="#c59ef4" d="M 210.5,592.5 C 210.833,589.5 209.5,588.167 206.5,588.5C 219.167,586.432 231.167,588.766 242.5,595.5C 244.826,578.505 253.493,574.005 268.5,582C 270.208,584.043 272.208,585.71 274.5,587C 276.09,589.48 275.59,591.313 273,592.5C 268.937,589.549 264.77,586.716 260.5,584C 256.058,582.622 252.558,583.788 250,587.5C 249.09,592.664 249.59,597.664 251.5,602.5C 251.566,604.266 250.732,605.266 249,605.5C 237.49,597.333 224.657,592.999 210.5,592.5 Z"/></g>
<g><path style="opacity:1" fill="#352947" d="M 825.5,578.5 C 827.635,578.147 828.968,578.98 829.5,581C 811.649,603.189 790.983,622.189 767.5,638C 764.394,639.636 761.227,641.136 758,642.5C 745.051,635.347 732.551,635.847 720.5,644C 716.339,645.174 715.005,643.841 716.5,640C 729.503,631.333 743.169,630.166 757.5,636.5C 760.279,635.611 762.945,634.444 765.5,633C 787.736,617.367 807.736,599.201 825.5,578.5 Z"/></g>
<g><path style="opacity:1" fill="#9854fe" d="M 397.5,579.5 C 404.175,579.334 410.842,579.5 417.5,580C 418.337,581.011 418.67,582.178 418.5,583.5C 411.5,583.5 404.5,583.5 397.5,583.5C 397.5,582.167 397.5,580.833 397.5,579.5 Z"/></g>
<g><path style="opacity:1" fill="#c39dfe" d="M 775.5,691.5 C 774.167,689.833 774.167,688.167 775.5,686.5C 784.131,687.275 792.464,686.108 800.5,683C 824.585,669.928 845.418,652.761 863,631.5C 874.24,617.36 884.24,602.36 893,586.5C 895.476,584.937 896.976,585.604 897.5,588.5C 875.978,630.191 844.978,663.025 804.5,687C 795.056,691.297 785.389,692.797 775.5,691.5 Z"/></g>
<g><path style="opacity:1" fill="#3d2f4d" d="M 206.5,588.5 C 209.5,588.167 210.833,589.5 210.5,592.5C 199.173,594.425 191.34,600.758 187,611.5C 185.503,620.342 188.003,627.842 194.5,634C 198.842,633.451 203.176,632.451 207.5,631C 211.833,630.333 216.167,630.333 220.5,631C 225.256,633.339 226.423,636.839 224,641.5C 219.422,647.055 213.588,648.888 206.5,647C 202.637,645.819 199.137,643.986 196,641.5C 191.756,646.393 190.423,652.06 192,658.5C 193.399,661.629 195.065,664.629 197,667.5C 200.09,669.451 202.59,671.951 204.5,675C 203.114,678.005 201.114,678.338 198.5,676C 189.217,669.081 185.05,659.914 186,648.5C 187.058,644.717 188.891,641.383 191.5,638.5C 176.1,622.214 177.1,607.048 194.5,593C 198.203,590.646 202.203,589.146 206.5,588.5 Z"/></g>
<g><path style="opacity:1" fill="#9956ff" d="M 643.5,600.5 C 645.371,600.859 646.871,601.859 648,603.5C 648.667,606.5 648.667,609.5 648,612.5C 647.692,613.308 647.192,613.975 646.5,614.5C 641.244,610.689 640.244,606.022 643.5,600.5 Z"/></g>
<g><path style="opacity:1" fill="#e7dd49" d="M 532.5,619.5 C 533.496,619.414 534.329,619.748 535,620.5C 543.023,639.858 555.523,655.691 572.5,668C 602.28,689.757 635.613,699.257 672.5,696.5C 673.126,700.375 671.459,702.209 667.5,702C 612.346,703.505 568.846,682.005 537,637.5C 534.28,632.728 532.113,627.728 530.5,622.5C 530.942,621.261 531.609,620.261 532.5,619.5 Z"/></g>
<g><path style="opacity:1" fill="#f8c4b8" d="M 436.5,622.5 C 448.392,622.244 452.558,627.911 449,639.5C 447.439,642.783 445.273,645.617 442.5,648C 452.488,655.891 463.821,660.891 476.5,663C 487.464,664.452 498.464,664.785 509.5,664C 496.385,657.219 486.219,647.385 479,634.5C 478.014,632.075 478.681,630.409 481,629.5C 486.885,637.368 493.385,644.868 500.5,652C 507.507,657.003 515.174,660.67 523.5,663C 524.747,664.494 524.747,665.994 523.5,667.5C 506.874,669.92 490.208,670.087 473.5,668C 459.787,665.216 447.62,659.383 437,650.5C 427.198,654.696 417.031,656.362 406.5,655.5C 405.141,653.694 405.475,652.194 407.5,651C 416.425,650.536 425.092,648.869 433.5,646C 428.942,637.408 429.942,629.575 436.5,622.5 Z"/></g>
<g><path style="opacity:1" fill="#9857fc" d="M 330.5,628.5 C 342.157,627.714 352.657,631.048 362,638.5C 362.942,641.23 361.942,642.563 359,642.5C 348.593,639.546 339.093,634.88 330.5,628.5 Z"/></g>
<g><path style="opacity:1" fill="#9854fe" d="M 439.5,627.5 C 443.305,627.643 444.971,629.643 444.5,633.5C 444.506,637.82 442.673,641.153 439,643.5C 436.564,639.517 435.898,635.184 437,630.5C 437.698,629.309 438.531,628.309 439.5,627.5 Z"/></g>
<g><path style="opacity:1" fill="#e7dd49" d="M 645.5,632.5 C 654.603,636.934 663.936,641.1 673.5,645C 675,646.5 676.5,648 678,649.5C 697.435,637.947 714.435,640.613 729,657.5C 737.217,671.386 737.55,685.386 730,699.5C 725.335,702.456 721.002,702.122 717,698.5C 714.828,692.309 713.161,685.976 712,679.5C 710.58,675.655 708.413,672.322 705.5,669.5C 706.167,668.167 707.167,667.167 708.5,666.5C 713.397,669.951 716.564,674.618 718,680.5C 718.85,685.584 720.016,690.584 721.5,695.5C 723.611,696.848 725.445,696.515 727,694.5C 732.899,678.48 729.732,664.647 717.5,653C 705.844,645.817 694.177,645.817 682.5,653C 681.978,653.561 681.645,654.228 681.5,655C 684.864,666.289 682.531,676.289 674.5,685C 670.654,686.157 667.821,684.991 666,681.5C 663.707,670.554 666.207,660.888 673.5,652.5C 672.252,650.541 670.585,649.041 668.5,648C 661.138,645.771 654.138,642.771 647.5,639C 644.679,637.379 644.013,635.212 645.5,632.5 Z"/></g>
<g><path style="opacity:1" fill="#9854fc" d="M 210.5,635.5 C 213.187,635.336 215.854,635.503 218.5,636C 219.86,637.938 219.527,639.604 217.5,641C 211.899,642.94 206.566,642.273 201.5,639C 204.511,637.673 207.511,636.506 210.5,635.5 Z"/></g>
<g><path style="opacity:1" fill="#c59ef5" d="M 387.5,650.5 C 389.903,650.393 391.736,651.393 393,653.5C 407.927,677.889 405.094,700.056 384.5,720C 357.958,740.84 328.458,746.673 296,737.5C 281.816,748.006 265.816,753.339 248,753.5C 240.466,752.926 232.966,752.093 225.5,751C 223.027,749.598 223.027,748.098 225.5,746.5C 232.391,744.388 238.724,741.221 244.5,737C 249.746,731.264 254.746,725.43 259.5,719.5C 261.266,719.434 262.266,720.268 262.5,722C 257.576,732.84 249.91,741.174 239.5,747C 258.046,749.227 275.046,745.227 290.5,735C 284.528,729.925 283.028,723.758 286,716.5C 291.869,711.812 296.536,712.812 300,719.5C 300.996,724.229 300.496,728.729 298.5,733C 324.204,739.579 348.538,736.245 371.5,723C 386.743,713.516 395.41,699.849 397.5,682C 396.752,671.751 393.252,662.584 387,654.5C 386.421,653.072 386.588,651.738 387.5,650.5 Z"/></g>
<g><path style="opacity:1" fill="#57e4cd" d="M 775.5,686.5 C 774.167,688.167 774.167,689.833 775.5,691.5C 773.833,691.5 772.167,691.5 770.5,691.5C 763.512,711.99 749.845,726.157 729.5,734C 723.656,735.657 717.822,735.824 712,734.5C 711.316,733.216 711.483,732.049 712.5,731C 737.528,728.964 755.028,716.464 765,693.5C 765.667,691.5 765.667,689.5 765,687.5C 754.091,679.764 750.091,669.431 753,656.5C 757.219,652.466 761.219,652.799 765,657.5C 770.403,666 773.07,675.333 773,685.5C 773.671,686.252 774.504,686.586 775.5,686.5 Z"/></g>
<g><path style="opacity:1" fill="#f2bdbb" d="M 280.5,657.5 C 308.169,657.333 335.835,657.5 363.5,658C 364.833,659.667 364.833,661.333 363.5,663C 336.167,663.667 308.833,663.667 281.5,663C 279.365,661.444 279.032,659.611 280.5,657.5 Z"/></g>
<g><path style="opacity:1" fill="#9c59fa" d="M 676.5,657.5 C 678.761,665.777 677.261,673.443 672,680.5C 669.513,672.104 671.013,664.437 676.5,657.5 Z"/></g>
<g><path style="opacity:1" fill="#975cfd" d="M 756.5,659.5 C 760.344,660.17 762.844,662.504 764,666.5C 765.65,671.395 766.317,676.395 766,681.5C 759.45,675.701 756.284,668.368 756.5,659.5 Z"/></g>
<g><path style="opacity:1" fill="#fdcab7" d="M 280.5,671.5 C 308.5,671.5 336.5,671.5 364.5,671.5C 364.5,673.167 364.5,674.833 364.5,676.5C 336.498,676.667 308.498,676.5 280.5,676C 279.272,674.51 279.272,673.01 280.5,671.5 Z"/></g>
<g><path style="opacity:1" fill="#3d2f47" d="M 424.5,679.5 C 426.655,679.372 428.655,679.872 430.5,681C 441.229,687.728 451.396,695.228 461,703.5C 461.089,707.71 459.256,708.543 455.5,706C 446.045,697.438 435.712,690.105 424.5,684C 423.272,682.51 423.272,681.01 424.5,679.5 Z"/></g>
<g><path style="opacity:1" fill="#f2bdbb" d="M 281.5,684.5 C 308.835,684.333 336.169,684.5 363.5,685C 366.167,686.667 366.167,688.333 363.5,690C 336.167,690.667 308.833,690.667 281.5,690C 278.982,688.19 278.982,686.357 281.5,684.5 Z"/></g>
<g><path style="opacity:1" fill="#5de3c6" d="M 415.5,688.5 C 416.552,688.351 417.552,688.517 418.5,689C 423.611,694.723 428.111,700.89 432,707.5C 432.494,709.134 432.66,710.801 432.5,712.5C 430.856,712.714 429.356,712.38 428,711.5C 424.448,704.618 420.115,698.284 415,692.5C 414.421,691.072 414.588,689.738 415.5,688.5 Z"/></g>
<g><path style="opacity:1" fill="#372a49" d="M 707.5,688.5 C 711.071,688.408 712.238,690.074 711,693.5C 703.507,707.319 692.007,714.652 676.5,715.5C 675.289,714.28 675.289,713.113 676.5,712C 690.965,709.452 701.298,701.619 707.5,688.5 Z"/></g>
<g><path style="opacity:1" fill="#fecbb9" d="M 280.5,698.5 C 301.836,698.333 323.169,698.5 344.5,699C 345.833,700.333 345.833,701.667 344.5,703C 323.167,703.667 301.833,703.667 280.5,703C 279.272,701.51 279.272,700.01 280.5,698.5 Z"/></g>
<g><path style="opacity:1" fill="#362a49" d="M 717.5,703.5 C 720.001,703.826 721.168,705.159 721,707.5C 711.425,718.703 699.258,724.037 684.5,723.5C 684.286,721.856 684.62,720.356 685.5,719C 698.472,718.346 709.139,713.179 717.5,703.5 Z"/></g>
<g><path style="opacity:1" fill="#372b4a" d="M 728.5,711.5 C 731.68,711.176 732.847,712.51 732,715.5C 722.467,725.775 710.8,730.442 697,729.5C 696.51,728.207 696.343,726.873 696.5,725.5C 709.178,725.155 719.845,720.488 728.5,711.5 Z"/></g>
<g><path style="opacity:1" fill="#9956fd" d="M 291.5,718.5 C 293.411,718.574 294.578,719.574 295,721.5C 295.79,724.634 295.457,727.634 294,730.5C 289.36,727.13 288.526,723.13 291.5,718.5 Z"/></g>
</svg>
