<svg xmlns="http://www.w3.org/2000/svg" width="256" height="256" viewBox="0 0 100 100"><rect width="100" height="100" rx="20" fill="#9854ff"></rect><path d="M17.98 74.50L9.16 74.50Q8.39 74.50 7.90 73.97Q7.41 73.45 7.41 72.75L7.41 72.75L7.41 27.25Q7.41 26.48 7.90 25.99Q8.39 25.50 9.16 25.50L9.16 25.50L41.36 25.50Q42.13 25.50 42.62 25.99Q43.11 26.48 43.11 27.25L43.11 27.25L43.11 34.32Q43.11 35.09 42.62 35.58Q42.13 36.07 41.36 36.07L41.36 36.07L19.73 36.07L19.73 46.36L39.96 46.36Q40.73 46.36 41.22 46.88Q41.71 47.41 41.71 48.18L41.71 48.18L41.71 55.18Q41.71 55.88 41.22 56.41Q40.73 56.93 39.96 56.93L39.96 56.93L19.73 56.93L19.73 72.75Q19.73 73.45 19.23 73.97Q18.75 74.50 17.98 74.50L17.98 74.50ZM70.97 74.50L52.42 74.50Q51.65 74.50 51.16 73.97Q50.67 73.45 50.67 72.75L50.67 72.75L50.67 27.25Q50.67 26.48 51.16 25.99Q51.65 25.50 52.42 25.50L52.42 25.50L70.62 25.50Q77.48 25.50 82.31 27.70Q87.14 29.91 89.73 34.14Q92.32 38.38 92.53 44.61L92.53 44.61Q92.60 47.69 92.60 50Q92.60 52.31 92.53 55.32L92.53 55.32Q92.25 61.83 89.76 66.10Q87.28 70.37 82.55 72.44Q77.83 74.50 70.97 74.50L70.97 74.50ZM63.27 35.58L63.27 64.42L70.62 64.42Q73.63 64.42 75.62 63.48Q77.62 62.53 78.63 60.50Q79.65 58.47 79.72 55.18L79.72 55.18Q79.86 53.15 79.89 51.54Q79.93 49.93 79.89 48.32Q79.86 46.71 79.72 44.75L79.72 44.75Q79.58 39.99 77.23 37.78Q74.89 35.58 70.27 35.58L70.27 35.58L63.27 35.58Z" fill="#fff"></path></svg>