<?xml version="1.0" encoding="UTF-8"?>
<!DOCTYPE svg PUBLIC "-//W3C//DTD SVG 1.1//EN" "http://www.w3.org/Graphics/SVG/1.1/DTD/svg11.dtd">
<svg xmlns="http://www.w3.org/2000/svg" version="1.1" width="200px" height="200px" style="shape-rendering:geometricPrecision; text-rendering:geometricPrecision; image-rendering:optimizeQuality; fill-rule:evenodd; clip-rule:evenodd" xmlns:xlink="http://www.w3.org/1999/xlink">
<g><path style="opacity:1" fill="#eaeff1" d="M -0.5,-0.5 C 66.1667,-0.5 132.833,-0.5 199.5,-0.5C 199.5,66.1667 199.5,132.833 199.5,199.5C 132.833,199.5 66.1667,199.5 -0.5,199.5C -0.5,132.833 -0.5,66.1667 -0.5,-0.5 Z"/></g>
<g><path style="opacity:1" fill="#e9e23a" d="M 104.5,61.5 C 111.926,85.056 107.259,105.723 90.5,123.5C 84.1292,128.775 77.2958,133.441 70,137.5C 69.338,135.187 68.838,132.854 68.5,130.5C 69.5,130.5 70.5,130.5 71.5,130.5C 71.5,128.5 71.5,126.5 71.5,124.5C 78.2815,120.829 82.2815,114.996 83.5,107C 83.1667,106.167 82.8333,105.333 82.5,104.5C 78.1667,105.833 73.8333,107.167 69.5,108.5C 68.8243,107.398 68.1577,106.398 67.5,105.5C 67.5,104.5 67.5,103.5 67.5,102.5C 68.1637,100.133 69.497,98.1331 71.5,96.5C 69.0458,91.9027 66.3792,87.5694 63.5,83.5C 62.8333,78.5 62.1667,73.5 61.5,68.5C 61.7438,65.7374 63.0771,63.5707 65.5,62C 74.9423,54.8588 84.109,47.3588 93,39.5C 97.6577,46.485 101.491,53.8183 104.5,61.5 Z"/></g>
<g><path style="opacity:1" fill="#fc946f" d="M 140.5,86.5 C 138.495,87.0388 136.495,87.7055 134.5,88.5C 131.629,95.7804 128.963,103.114 126.5,110.5C 123.502,113.667 120.669,117 118,120.5C 117.506,122.134 117.34,123.801 117.5,125.5C 118.791,125.263 119.791,125.596 120.5,126.5C 120.443,127.609 120.11,128.609 119.5,129.5C 114.018,128.595 109.351,130.095 105.5,134C 109.069,135.942 112.402,138.108 115.5,140.5C 114.362,143.913 113.029,147.246 111.5,150.5C 100.921,144.37 93.9211,135.37 90.5,123.5C 107.259,105.723 111.926,85.056 104.5,61.5C 106.148,59.5707 107.815,57.5707 109.5,55.5C 120.314,64.4796 130.981,73.6463 141.5,83C 140.663,84.0113 140.33,85.1779 140.5,86.5 Z"/></g>
<g><path style="opacity:1" fill="#9756fc" d="M 61.5,68.5 C 62.1667,73.5 62.8333,78.5 63.5,83.5C 62.2876,82.7701 61.2876,81.7701 60.5,80.5C 60.402,86.0461 62.0687,91.2128 65.5,96C 61.8678,97.659 58.2012,99.3256 54.5,101C 57.5182,101.499 60.5182,101.332 63.5,100.5C 65.1143,100.803 66.4477,101.47 67.5,102.5C 67.5,103.5 67.5,104.5 67.5,105.5C 67.6399,107.124 66.9733,108.29 65.5,109C 61.896,110.154 58.2293,110.987 54.5,111.5C 56.9394,119.902 62.606,124.235 71.5,124.5C 71.5,126.5 71.5,128.5 71.5,130.5C 70.5,130.5 69.5,130.5 68.5,130.5C 45.3819,127.884 29.2152,115.884 20,94.5C 15.2335,82.6395 12.7335,70.3061 12.5,57.5C 28.1667,57.5 43.8333,57.5 59.5,57.5C 59.6459,61.3875 60.3126,65.0542 61.5,68.5 Z"/></g>
<g><path style="opacity:1" fill="#a364e8" d="M 83.5,62.5 C 85.6196,63.85 85.453,65.5167 83,67.5C 82.3603,65.735 82.5269,64.0683 83.5,62.5 Z"/></g>
<g><path style="opacity:1" fill="#a86ae0" d="M 71.5,62.5 C 73.1207,62.7869 74.1207,63.7869 74.5,65.5C 73.675,66.3857 72.675,66.719 71.5,66.5C 71.5,65.1667 71.5,63.8333 71.5,62.5 Z"/></g>
<g><path style="opacity:1" fill="#b077cd" d="M 78.5,60.5 C 80.8963,61.8275 80.8963,63.4942 78.5,65.5C 77.3336,63.8327 77.3336,62.166 78.5,60.5 Z"/></g>
<g><path style="opacity:1" fill="#a05fef" d="M 86.5,64.5 C 88.8075,65.405 88.8075,66.7383 86.5,68.5C 85.7084,67.3002 85.7084,65.9669 86.5,64.5 Z"/></g>
<g><path style="opacity:1" fill="#9f5eef" d="M 67.5,65.5 C 69.7279,66.3218 70.3946,67.6552 69.5,69.5C 67.8888,68.6798 67.2222,67.3464 67.5,65.5 Z"/></g>
<g><path style="opacity:1" fill="#4eec79" d="M 39.5,67.5 C 40.6491,67.7911 41.3158,68.6244 41.5,70C 41.1667,70.8333 40.8333,71.6667 40.5,72.5C 39.5481,70.9547 39.2148,69.288 39.5,67.5 Z"/></g>
<g><path style="opacity:1" fill="#32283d" d="M 74.5,67.5 C 80.5808,67.3718 84.9141,70.0385 87.5,75.5C 81.1883,76.7273 75.0217,78.394 69,80.5C 68.1138,74.9465 69.9471,70.6131 74.5,67.5 Z"/></g>
<g><path style="opacity:1" fill="#5cd78c" d="M 43.5,68.5 C 44.5,68.5 45.5,68.5 46.5,68.5C 46.8841,70.6648 46.2174,72.3315 44.5,73.5C 43.5481,71.9547 43.2148,70.288 43.5,68.5 Z"/></g>
<g><path style="opacity:1" fill="#a365e6" d="M 89.5,67.5 C 90.2389,67.369 90.9056,67.5357 91.5,68C 90.5342,69.6779 89.2009,70.3446 87.5,70C 88.3805,69.2917 89.0472,68.4584 89.5,67.5 Z"/></g>
<g><path style="opacity:1" fill="#50eb7a" d="M 49.5,69.5 C 51.8075,70.405 51.8075,71.7383 49.5,73.5C 48.3744,72.1916 48.3744,70.8583 49.5,69.5 Z"/></g>
<g><path style="opacity:1" fill="#49ee77" d="M 32.5,69.5 C 34.7288,70.0553 36.3954,71.3886 37.5,73.5C 34.8534,73.8951 33.1867,72.5618 32.5,69.5 Z"/></g>
<g><path style="opacity:1" fill="#a466e5" d="M 63.5,71.5 C 64.8488,70.2035 66.1821,70.3702 67.5,72C 66.0715,72.5791 64.7382,72.4124 63.5,71.5 Z"/></g>
<g><path style="opacity:1" fill="#49eb78" d="M 29.5,73.5 C 31.5441,74.0312 33.2107,75.1978 34.5,77C 31.6318,77.6401 29.9651,76.4734 29.5,73.5 Z"/></g>
<g><path style="opacity:1" fill="#322644" d="M 40.5,74.5 C 44.3311,74.2491 47.6644,75.4157 50.5,78C 52.607,79.2635 53.607,81.0968 53.5,83.5C 46.5671,83.5248 40.0671,85.1915 34,88.5C 32.6694,82.1632 34.8361,77.4965 40.5,74.5 Z"/></g>
<g><path style="opacity:1" fill="#4eea7b" d="M 26.5,80.5 C 28.456,79.1988 30.1226,79.6988 31.5,82C 29.5048,82.6128 27.8381,82.1128 26.5,80.5 Z"/></g>
<g><path style="opacity:1" fill="#3c2d4a" d="M 63.5,83.5 C 66.3792,87.5694 69.0458,91.9027 71.5,96.5C 69.497,98.1331 68.1637,100.133 67.5,102.5C 66.4477,101.47 65.1143,100.803 63.5,100.5C 60.5182,101.332 57.5182,101.499 54.5,101C 58.2012,99.3256 61.8678,97.659 65.5,96C 62.0687,91.2128 60.402,86.0461 60.5,80.5C 61.2876,81.7701 62.2876,82.7701 63.5,83.5 Z"/></g>
<g><path style="opacity:1" fill="#a95cea" d="M 118.5,84.5 C 117.791,85.404 116.791,85.7373 115.5,85.5C 115.762,84.0222 115.429,82.6888 114.5,81.5C 111.151,82.8303 110.818,82.3303 113.5,80C 114.5,79.3333 115.5,79.3333 116.5,80C 117.099,81.6225 117.766,83.1225 118.5,84.5 Z"/></g>
<g><path style="opacity:1" fill="#9855fd" d="M 111.5,150.5 C 113.029,147.246 114.362,143.913 115.5,140.5C 118.721,141.709 121.721,143.376 124.5,145.5C 128.273,138.552 126.607,133.219 119.5,129.5C 120.11,128.609 120.443,127.609 120.5,126.5C 134.04,128.778 134.707,127.278 122.5,122C 129.651,115.457 135.151,107.957 139,99.5C 134.665,103.003 130.499,106.67 126.5,110.5C 128.963,103.114 131.629,95.7804 134.5,88.5C 136.495,87.7055 138.495,87.0388 140.5,86.5C 155.813,84.6142 171.147,82.9475 186.5,81.5C 183.912,107.131 173.912,129.298 156.5,148C 142.138,159.524 126.472,162.524 109.5,157C 110.274,154.846 110.941,152.679 111.5,150.5 Z"/></g>
<g><path style="opacity:1" fill="#a35aef" d="M 118.5,84.5 C 119.919,83.5489 121.585,83.2155 123.5,83.5C 123.157,85.4832 123.824,86.8166 125.5,87.5C 124.432,88.4345 123.099,88.7678 121.5,88.5C 121.5,87.1667 121.5,85.8333 121.5,84.5C 120.5,84.5 119.5,84.5 118.5,84.5 Z"/></g>
<g><path style="opacity:1" fill="#52e083" d="M 25.5,83.5 C 28.0971,83.5332 29.0971,84.5332 28.5,86.5C 26.7869,86.1207 25.7869,85.1207 25.5,83.5 Z"/></g>
<g><path style="opacity:1" fill="#ab5de8" d="M 125.5,87.5 C 126.568,86.5655 127.901,86.2322 129.5,86.5C 128.645,92.4323 127.311,92.7657 125.5,87.5 Z"/></g>
<g><path style="opacity:1" fill="#35283f" d="M 110.5,87.5 C 116.715,89.9406 122.715,92.9406 128.5,96.5C 116.414,105.577 110.414,102.577 110.5,87.5 Z"/></g>
<g><path style="opacity:1" fill="#fe976b" d="M 79.5,88.5 C 85.8302,87.6662 88.6635,90.3329 88,96.5C 84.3333,100.5 80.6667,100.5 77,96.5C 76.0182,93.2253 76.8515,90.5586 79.5,88.5 Z"/></g>
<g><path style="opacity:1" fill="#42f86d" d="M 42.5,95.5 C 48.8197,95.3196 51.3197,98.3196 50,104.5C 46.6667,108.5 43.3333,108.5 40,104.5C 38.9271,100.9 39.7605,97.9003 42.5,95.5 Z"/></g>
<g><path style="opacity:1" fill="#59dc88" d="M 145.5,97.5 C 146.5,97.5 147.5,97.5 148.5,97.5C 147.865,101.462 149.198,102.795 152.5,101.5C 154.397,101.728 155.73,102.728 156.5,104.5C 158.098,103.515 159.765,103.349 161.5,104C 162.061,105.676 163.061,107.009 164.5,108C 161.657,108.915 159.49,108.081 158,105.5C 156.234,106.233 154.401,106.567 152.5,106.5C 152.5,105.5 152.5,104.5 152.5,103.5C 150.5,103.5 148.5,103.5 146.5,103.5C 147.112,99.1238 145.946,98.4571 143,101.5C 142.833,101.167 142.667,100.833 142.5,100.5C 143.77,99.7124 144.77,98.7124 145.5,97.5 Z"/></g>
<g><path style="opacity:1" fill="#372848" d="M 120.5,126.5 C 119.791,125.596 118.791,125.263 117.5,125.5C 117.34,123.801 117.506,122.134 118,120.5C 120.669,117 123.502,113.667 126.5,110.5C 130.499,106.67 134.665,103.003 139,99.5C 135.151,107.957 129.651,115.457 122.5,122C 134.707,127.278 134.04,128.778 120.5,126.5 Z"/></g>
<g><path style="opacity:1" fill="#322643" d="M 140.5,102.5 C 146.054,106.108 152.054,108.942 158.5,111C 159.451,111.718 159.617,112.551 159,113.5C 146.526,120.84 140.359,117.173 140.5,102.5 Z"/></g>
<g><path style="opacity:1" fill="#e9ecee" d="M 71.5,124.5 C 62.606,124.235 56.9394,119.902 54.5,111.5C 58.2293,110.987 61.896,110.154 65.5,109C 66.9733,108.29 67.6399,107.124 67.5,105.5C 68.1577,106.398 68.8243,107.398 69.5,108.5C 73.8333,107.167 78.1667,105.833 82.5,104.5C 82.8333,105.333 83.1667,106.167 83.5,107C 82.2815,114.996 78.2815,120.829 71.5,124.5 Z"/></g>
<g><path style="opacity:1" fill="#49fa67" d="M 109.5,107.5 C 115.83,106.666 118.663,109.333 118,115.5C 114.333,119.5 110.667,119.5 107,115.5C 106.018,112.225 106.851,109.559 109.5,107.5 Z"/></g>
<g><path style="opacity:1" fill="#fb9275" d="M 137.5,120.5 C 144.99,120.323 146.99,123.49 143.5,130C 135.424,130.805 133.424,127.638 137.5,120.5 Z"/></g>
<g><path style="opacity:1" fill="#eaecef" d="M 119.5,129.5 C 126.607,133.219 128.273,138.552 124.5,145.5C 121.721,143.376 118.721,141.709 115.5,140.5C 112.402,138.108 109.069,135.942 105.5,134C 109.351,130.095 114.018,128.595 119.5,129.5 Z"/></g>
</svg>
